<mxfile host="65bd71144e">
    <diagram id="afJgA6YJ7kgfRQqBY9Ge" name="Page-1">
        <mxGraphModel dx="3020" dy="3294" grid="1" gridSize="10" guides="1" tooltips="1" connect="1" arrows="1" fold="1" page="1" pageScale="1" pageWidth="1654" pageHeight="2336" background="none" math="0" shadow="0">
            <root>
                <mxCell id="0"/>
                <mxCell id="1" parent="0"/>
                <mxCell id="352" style="edgeStyle=none;html=1;entryX=0.5;entryY=0;entryDx=0;entryDy=0;labelBackgroundColor=none;fontSize=12;" parent="1" source="319" target="320" edge="1">
                    <mxGeometry relative="1" as="geometry"/>
                </mxCell>
                <mxCell id="319" value="&lt;div style=&quot;color: rgb(204, 204, 204); font-family: Menlo, Monaco, &amp;quot;Courier New&amp;quot;, monospace; line-height: 18px; font-size: 12px;&quot;&gt;&lt;span style=&quot;color: rgb(220, 220, 170); font-size: 12px;&quot;&gt;cursorConstructor&lt;/span&gt;&lt;span style=&quot;color: rgb(220, 220, 170); font-size: 12px;&quot;&gt;()&lt;/span&gt;&lt;/div&gt;" style="strokeWidth=2;html=1;shape=mxgraph.flowchart.start_1;whiteSpace=wrap;labelBackgroundColor=none;flipH=1;flipV=1;shadow=0;labelBorderColor=none;fillColor=#333333;fontSize=12;" parent="1" vertex="1">
                    <mxGeometry x="-1600" y="-2209" width="160" height="60" as="geometry"/>
                </mxCell>
                <mxCell id="353" style="edgeStyle=none;html=1;entryX=0.5;entryY=0;entryDx=0;entryDy=0;labelBackgroundColor=none;fontSize=12;" parent="1" source="320" target="339" edge="1">
                    <mxGeometry relative="1" as="geometry"/>
                </mxCell>
                <mxCell id="320" value="&lt;div style=&quot;color: rgb(204, 204, 204); font-family: Menlo, Monaco, &amp;quot;Courier New&amp;quot;, monospace; font-weight: normal; font-size: 12px; line-height: 18px;&quot;&gt;&lt;div style=&quot;line-height: 18px; font-size: 12px;&quot;&gt;&lt;div style=&quot;line-height: 18px; font-size: 12px;&quot;&gt;&lt;span style=&quot;color: rgb(156, 220, 254); font-size: 12px;&quot;&gt;cursor&lt;/span&gt;.&lt;span style=&quot;color: rgb(156, 220, 254); font-size: 12px;&quot;&gt;scale&lt;/span&gt; &lt;span style=&quot;color: rgb(212, 212, 212); font-size: 12px;&quot;&gt;=&lt;/span&gt; &lt;span style=&quot;color: rgb(156, 220, 254); font-size: 12px;&quot;&gt;scale&lt;/span&gt;&lt;/div&gt;&lt;/div&gt;&lt;/div&gt;" style="rounded=1;whiteSpace=wrap;html=1;labelBackgroundColor=none;flipH=1;flipV=1;shadow=0;labelBorderColor=none;fillColor=#333333;fontSize=12;" parent="1" vertex="1">
                    <mxGeometry x="-1610" y="-2121" width="180" height="60" as="geometry"/>
                </mxCell>
                <mxCell id="354" style="edgeStyle=none;html=1;entryX=0.5;entryY=0;entryDx=0;entryDy=0;labelBackgroundColor=none;fontSize=12;" parent="1" source="339" target="340" edge="1">
                    <mxGeometry relative="1" as="geometry"/>
                </mxCell>
                <mxCell id="339" value="&lt;div style=&quot;color: rgb(204, 204, 204); font-family: Menlo, Monaco, &amp;quot;Courier New&amp;quot;, monospace; font-weight: normal; font-size: 12px; line-height: 18px;&quot;&gt;&lt;div style=&quot;line-height: 18px; font-size: 12px;&quot;&gt;&lt;div style=&quot;line-height: 18px; font-size: 12px;&quot;&gt;&lt;span style=&quot;color: rgb(156, 220, 254); font-size: 12px;&quot;&gt;cursor&lt;/span&gt;.&lt;span style=&quot;color: rgb(156, 220, 254); font-size: 12px;&quot;&gt;position&lt;/span&gt; &lt;span style=&quot;color: rgb(212, 212, 212); font-size: 12px;&quot;&gt;=&lt;/span&gt;&amp;nbsp;&lt;/div&gt;&lt;div style=&quot;line-height: 18px; font-size: 12px;&quot;&gt;&lt;div style=&quot;line-height: 18px; font-size: 12px;&quot;&gt;&lt;span style=&quot;color: rgb(86, 156, 214); font-size: 12px;&quot;&gt;MIN_VALUES&lt;/span&gt;&lt;/div&gt;&lt;/div&gt;&lt;/div&gt;&lt;/div&gt;" style="rounded=1;whiteSpace=wrap;html=1;labelBackgroundColor=none;flipH=1;flipV=1;shadow=0;labelBorderColor=none;fillColor=#333333;fontSize=12;" parent="1" vertex="1">
                    <mxGeometry x="-1610" y="-2033" width="180" height="60" as="geometry"/>
                </mxCell>
                <mxCell id="355" style="edgeStyle=none;html=1;labelBackgroundColor=none;fontSize=12;" parent="1" source="340" target="341" edge="1">
                    <mxGeometry relative="1" as="geometry"/>
                </mxCell>
                <mxCell id="340" value="&lt;div style=&quot;color: rgb(204, 204, 204); font-family: Menlo, Monaco, &amp;quot;Courier New&amp;quot;, monospace; font-weight: normal; font-size: 12px; line-height: 18px;&quot;&gt;&lt;div style=&quot;line-height: 18px; font-size: 12px;&quot;&gt;&lt;div style=&quot;line-height: 18px; font-size: 12px;&quot;&gt;&lt;span style=&quot;color: rgb(156, 220, 254); font-size: 12px;&quot;&gt;cursor&lt;/span&gt;.&lt;span style=&quot;color: rgb(156, 220, 254); font-size: 12px;&quot;&gt;homePosition&lt;/span&gt;&amp;nbsp;&lt;span style=&quot;color: rgb(212, 212, 212); font-size: 12px;&quot;&gt;=&lt;/span&gt;&amp;nbsp;&lt;br style=&quot;font-size: 12px;&quot;&gt;&lt;/div&gt;&lt;div style=&quot;line-height: 18px; font-size: 12px;&quot;&gt;&lt;div style=&quot;line-height: 18px; font-size: 12px;&quot;&gt;&lt;span style=&quot;color: rgb(86, 156, 214); font-size: 12px;&quot;&gt;HOME_VALUES&lt;/span&gt;&lt;/div&gt;&lt;/div&gt;&lt;/div&gt;&lt;/div&gt;" style="rounded=1;whiteSpace=wrap;html=1;labelBackgroundColor=none;flipH=1;flipV=1;shadow=0;labelBorderColor=none;fillColor=#333333;fontSize=12;" parent="1" vertex="1">
                    <mxGeometry x="-1610" y="-1945" width="180" height="60" as="geometry"/>
                </mxCell>
                <mxCell id="356" style="edgeStyle=none;html=1;labelBackgroundColor=none;fontSize=12;" parent="1" source="341" target="342" edge="1">
                    <mxGeometry relative="1" as="geometry"/>
                </mxCell>
                <mxCell id="341" value="&lt;div style=&quot;color: rgb(204, 204, 204); font-family: Menlo, Monaco, &amp;quot;Courier New&amp;quot;, monospace; font-weight: normal; font-size: 12px; line-height: 18px;&quot;&gt;&lt;div style=&quot;line-height: 18px; font-size: 12px;&quot;&gt;&lt;div style=&quot;line-height: 18px; font-size: 12px;&quot;&gt;&lt;span style=&quot;color: rgb(156, 220, 254); font-size: 12px;&quot;&gt;cursor&lt;/span&gt;.&lt;span style=&quot;color: rgb(156, 220, 254); font-size: 12px;&quot;&gt;maxPosition&lt;/span&gt;&amp;nbsp;&lt;span style=&quot;color: rgb(212, 212, 212); font-size: 12px;&quot;&gt;=&lt;/span&gt;&amp;nbsp;&lt;br style=&quot;font-size: 12px;&quot;&gt;&lt;/div&gt;&lt;div style=&quot;line-height: 18px; font-size: 12px;&quot;&gt;&lt;div style=&quot;line-height: 18px; font-size: 12px;&quot;&gt;&lt;span style=&quot;color: rgb(86, 156, 214); font-size: 12px;&quot;&gt;MAX - (CHAR_SPACE *&amp;nbsp;&lt;/span&gt;&lt;span style=&quot;color: rgb(156, 220, 254); font-size: 12px;&quot;&gt;scale)&lt;/span&gt;&lt;span style=&quot;color: rgb(86, 156, 214); font-size: 12px;&quot;&gt;&amp;nbsp;&lt;/span&gt;&lt;/div&gt;&lt;/div&gt;&lt;/div&gt;&lt;/div&gt;" style="rounded=1;whiteSpace=wrap;html=1;labelBackgroundColor=none;flipH=1;flipV=1;shadow=0;labelBorderColor=none;fillColor=#333333;fontSize=12;" parent="1" vertex="1">
                    <mxGeometry x="-1610" y="-1858" width="180" height="60" as="geometry"/>
                </mxCell>
                <mxCell id="357" style="edgeStyle=none;html=1;entryX=0.5;entryY=0;entryDx=0;entryDy=0;labelBackgroundColor=none;fontSize=12;" parent="1" source="342" target="343" edge="1">
                    <mxGeometry relative="1" as="geometry"/>
                </mxCell>
                <mxCell id="342" value="&lt;div style=&quot;color: rgb(204, 204, 204); font-family: Menlo, Monaco, &amp;quot;Courier New&amp;quot;, monospace; font-weight: normal; font-size: 12px; line-height: 18px;&quot;&gt;&lt;div style=&quot;line-height: 18px; font-size: 12px;&quot;&gt;&lt;div style=&quot;line-height: 18px; font-size: 12px;&quot;&gt;&lt;span style=&quot;color: rgb(156, 220, 254); font-size: 12px;&quot;&gt;cursor&lt;/span&gt;.&lt;span style=&quot;color: rgb(156, 220, 254); font-size: 12px;&quot;&gt;minPosition&lt;/span&gt;&amp;nbsp;&lt;span style=&quot;color: rgb(212, 212, 212); font-size: 12px;&quot;&gt;=&lt;/span&gt;&amp;nbsp;&lt;br style=&quot;font-size: 12px;&quot;&gt;&lt;/div&gt;&lt;div style=&quot;line-height: 18px; font-size: 12px;&quot;&gt;&lt;div style=&quot;line-height: 18px; font-size: 12px;&quot;&gt;&lt;span style=&quot;color: rgb(86, 156, 214); font-size: 12px;&quot;&gt;MIN&amp;nbsp;&lt;/span&gt;&lt;/div&gt;&lt;/div&gt;&lt;/div&gt;&lt;/div&gt;" style="rounded=1;whiteSpace=wrap;html=1;labelBackgroundColor=none;flipH=1;flipV=1;shadow=0;labelBorderColor=none;fillColor=#333333;fontSize=12;" parent="1" vertex="1">
                    <mxGeometry x="-1610" y="-1770" width="180" height="60" as="geometry"/>
                </mxCell>
                <mxCell id="358" style="edgeStyle=none;html=1;labelBackgroundColor=none;fontSize=12;" parent="1" source="343" target="344" edge="1">
                    <mxGeometry relative="1" as="geometry"/>
                </mxCell>
                <mxCell id="343" value="&lt;div style=&quot;color: rgb(204, 204, 204); font-family: Menlo, Monaco, &amp;quot;Courier New&amp;quot;, monospace; font-weight: normal; font-size: 12px; line-height: 18px;&quot;&gt;&lt;div style=&quot;line-height: 18px; font-size: 12px;&quot;&gt;&lt;div style=&quot;line-height: 18px; font-size: 12px;&quot;&gt;&lt;span style=&quot;color: rgb(156, 220, 254); font-size: 12px;&quot;&gt;cursor&lt;/span&gt;.&lt;span style=&quot;color: rgb(156, 220, 254); font-size: 12px;&quot;&gt;lineSpace&lt;/span&gt;&amp;nbsp;&lt;span style=&quot;color: rgb(212, 212, 212); font-size: 12px;&quot;&gt;=&lt;/span&gt;&amp;nbsp;&lt;br style=&quot;font-size: 12px;&quot;&gt;&lt;/div&gt;&lt;div style=&quot;line-height: 18px; font-size: 12px;&quot;&gt;&lt;div style=&quot;line-height: 18px; font-size: 12px;&quot;&gt;&lt;span style=&quot;color: rgb(86, 156, 214); font-size: 12px;&quot;&gt;(CHAR_SPACE *&amp;nbsp;&lt;/span&gt;&lt;span style=&quot;color: rgb(156, 220, 254); font-size: 12px;&quot;&gt;scale) +&amp;nbsp;&lt;/span&gt;&lt;span style=&quot;color: rgb(86, 156, 214); font-size: 12px;&quot;&gt;LINE_SPACE&lt;/span&gt;&lt;span style=&quot;color: rgb(156, 220, 254); font-size: 12px;&quot;&gt;&amp;nbsp;&lt;/span&gt;&lt;span style=&quot;color: rgb(86, 156, 214); font-size: 12px;&quot;&gt;&amp;nbsp;&lt;/span&gt;&lt;/div&gt;&lt;/div&gt;&lt;/div&gt;&lt;/div&gt;" style="rounded=1;whiteSpace=wrap;html=1;labelBackgroundColor=none;flipH=1;flipV=1;shadow=0;labelBorderColor=none;fillColor=#333333;fontSize=12;" parent="1" vertex="1">
                    <mxGeometry x="-1610" y="-1682" width="180" height="60" as="geometry"/>
                </mxCell>
                <mxCell id="359" style="edgeStyle=none;html=1;labelBackgroundColor=none;fontSize=12;" parent="1" source="344" target="345" edge="1">
                    <mxGeometry relative="1" as="geometry"/>
                </mxCell>
                <mxCell id="344" value="&lt;div style=&quot;color: rgb(204, 204, 204); font-family: Menlo, Monaco, &amp;quot;Courier New&amp;quot;, monospace; font-weight: normal; font-size: 12px; line-height: 18px;&quot;&gt;&lt;div style=&quot;line-height: 18px; font-size: 12px;&quot;&gt;&lt;div style=&quot;line-height: 18px; font-size: 12px;&quot;&gt;&lt;span style=&quot;color: rgb(156, 220, 254); font-size: 12px;&quot;&gt;cursor&lt;/span&gt;.&lt;span style=&quot;color: rgb(156, 220, 254); font-size: 12px;&quot;&gt;characterSpace&lt;/span&gt;&amp;nbsp;&lt;span style=&quot;color: rgb(212, 212, 212); font-size: 12px;&quot;&gt;=&lt;/span&gt;&amp;nbsp;&lt;br style=&quot;font-size: 12px;&quot;&gt;&lt;/div&gt;&lt;div style=&quot;line-height: 18px; font-size: 12px;&quot;&gt;&lt;div style=&quot;line-height: 18px; font-size: 12px;&quot;&gt;&lt;span style=&quot;color: rgb(86, 156, 214); font-size: 12px;&quot;&gt;(CHAR_SPACE *&amp;nbsp;&lt;/span&gt;&lt;span style=&quot;color: rgb(156, 220, 254); font-size: 12px;&quot;&gt;scale)&lt;/span&gt;&lt;span style=&quot;color: rgb(86, 156, 214); font-size: 12px;&quot;&gt;&amp;nbsp;&lt;/span&gt;&lt;/div&gt;&lt;/div&gt;&lt;/div&gt;&lt;/div&gt;" style="rounded=1;whiteSpace=wrap;html=1;labelBackgroundColor=none;flipH=1;flipV=1;shadow=0;labelBorderColor=none;fillColor=#333333;fontSize=12;" parent="1" vertex="1">
                    <mxGeometry x="-1610" y="-1594" width="180" height="60" as="geometry"/>
                </mxCell>
                <mxCell id="360" style="edgeStyle=none;html=1;labelBackgroundColor=none;fontSize=12;" parent="1" source="345" target="346" edge="1">
                    <mxGeometry relative="1" as="geometry"/>
                </mxCell>
                <mxCell id="345" value="&lt;div style=&quot;color: rgb(204, 204, 204); font-family: Menlo, Monaco, &amp;quot;Courier New&amp;quot;, monospace; font-weight: normal; font-size: 12px; line-height: 18px;&quot;&gt;&lt;div style=&quot;line-height: 18px; font-size: 12px;&quot;&gt;&lt;div style=&quot;line-height: 18px; font-size: 12px;&quot;&gt;&lt;span style=&quot;color: rgb(156, 220, 254); font-size: 12px;&quot;&gt;cursor&lt;/span&gt;.&lt;span style=&quot;color: rgb(156, 220, 254); font-size: 12px;&quot;&gt;init&lt;/span&gt;&amp;nbsp;&lt;span style=&quot;color: rgb(212, 212, 212); font-size: 12px;&quot;&gt;=&lt;/span&gt;&amp;nbsp;&lt;span style=&quot;color: rgb(86, 156, 214); font-size: 12px;&quot;&gt;&amp;nbsp;&lt;/span&gt;&lt;span style=&quot;color: rgb(86, 156, 214); font-size: 12px;&quot;&gt;true&lt;/span&gt;&lt;/div&gt;&lt;/div&gt;&lt;/div&gt;" style="rounded=1;whiteSpace=wrap;html=1;labelBackgroundColor=none;flipH=1;flipV=1;shadow=0;labelBorderColor=none;fillColor=#333333;fontSize=12;" parent="1" vertex="1">
                    <mxGeometry x="-1610" y="-1506" width="180" height="60" as="geometry"/>
                </mxCell>
                <mxCell id="361" style="edgeStyle=none;html=1;labelBackgroundColor=none;fontSize=12;" parent="1" source="346" target="347" edge="1">
                    <mxGeometry relative="1" as="geometry"/>
                </mxCell>
                <mxCell id="346" value="&lt;div style=&quot;color: rgb(204, 204, 204); font-family: Menlo, Monaco, &amp;quot;Courier New&amp;quot;, monospace; font-weight: normal; font-size: 12px; line-height: 18px;&quot;&gt;&lt;div style=&quot;line-height: 18px; font-size: 12px;&quot;&gt;&lt;div style=&quot;line-height: 18px; font-size: 12px;&quot;&gt;&lt;div style=&quot;line-height: 18px; font-size: 12px;&quot;&gt;&lt;span style=&quot;color: rgb(156, 220, 254); font-size: 12px;&quot;&gt;cursor&lt;/span&gt;.&lt;span style=&quot;color: rgb(156, 220, 254); font-size: 12px;&quot;&gt;set&lt;/span&gt;&amp;nbsp;&lt;span style=&quot;color: rgb(212, 212, 212); font-size: 12px;&quot;&gt;=&lt;/span&gt; &lt;span style=&quot;color: rgb(220, 220, 170); font-size: 12px;&quot;&gt;_set&lt;/span&gt;&lt;/div&gt;&lt;/div&gt;&lt;/div&gt;&lt;/div&gt;" style="rounded=1;whiteSpace=wrap;html=1;labelBackgroundColor=none;flipH=1;flipV=1;shadow=0;labelBorderColor=none;fillColor=#333333;fontSize=12;" parent="1" vertex="1">
                    <mxGeometry x="-1610" y="-1418" width="180" height="60" as="geometry"/>
                </mxCell>
                <mxCell id="362" style="edgeStyle=none;html=1;labelBackgroundColor=none;fontSize=12;" parent="1" source="347" target="348" edge="1">
                    <mxGeometry relative="1" as="geometry"/>
                </mxCell>
                <mxCell id="347" value="&lt;div style=&quot;color: rgb(204, 204, 204); font-family: Menlo, Monaco, &amp;quot;Courier New&amp;quot;, monospace; font-weight: normal; font-size: 12px; line-height: 18px;&quot;&gt;&lt;div style=&quot;line-height: 18px; font-size: 12px;&quot;&gt;&lt;div style=&quot;line-height: 18px; font-size: 12px;&quot;&gt;&lt;div style=&quot;line-height: 18px; font-size: 12px;&quot;&gt;&lt;span style=&quot;color: rgb(156, 220, 254); font-size: 12px;&quot;&gt;cursor&lt;/span&gt;.&lt;span style=&quot;color: rgb(156, 220, 254); font-size: 12px;&quot;&gt;move&lt;/span&gt; &lt;span style=&quot;color: rgb(212, 212, 212); font-size: 12px;&quot;&gt;=&lt;/span&gt; &lt;span style=&quot;color: rgb(220, 220, 170); font-size: 12px;&quot;&gt;_move&lt;/span&gt;&lt;/div&gt;&lt;/div&gt;&lt;/div&gt;&lt;/div&gt;" style="rounded=1;whiteSpace=wrap;html=1;labelBackgroundColor=none;flipH=1;flipV=1;shadow=0;labelBorderColor=none;fillColor=#333333;fontSize=12;" parent="1" vertex="1">
                    <mxGeometry x="-1610" y="-1330" width="180" height="60" as="geometry"/>
                </mxCell>
                <mxCell id="363" style="edgeStyle=none;html=1;labelBackgroundColor=none;fontSize=12;" parent="1" source="348" target="349" edge="1">
                    <mxGeometry relative="1" as="geometry"/>
                </mxCell>
                <mxCell id="348" value="&lt;div style=&quot;color: rgb(204, 204, 204); font-family: Menlo, Monaco, &amp;quot;Courier New&amp;quot;, monospace; font-weight: normal; font-size: 12px; line-height: 18px;&quot;&gt;&lt;div style=&quot;line-height: 18px; font-size: 12px;&quot;&gt;&lt;div style=&quot;line-height: 18px; font-size: 12px;&quot;&gt;&lt;div style=&quot;line-height: 18px; font-size: 12px;&quot;&gt;&lt;span style=&quot;color: rgb(156, 220, 254); font-size: 12px;&quot;&gt;cursor&lt;/span&gt;.&lt;span style=&quot;color: rgb(156, 220, 254); font-size: 12px;&quot;&gt;newline&lt;/span&gt; &lt;span style=&quot;color: rgb(212, 212, 212); font-size: 12px;&quot;&gt;=&lt;/span&gt; &lt;span style=&quot;color: rgb(220, 220, 170); font-size: 12px;&quot;&gt;_newline&lt;/span&gt;&lt;/div&gt;&lt;/div&gt;&lt;/div&gt;&lt;/div&gt;" style="rounded=1;whiteSpace=wrap;html=1;labelBackgroundColor=none;flipH=1;flipV=1;shadow=0;labelBorderColor=none;fillColor=#333333;fontSize=12;" parent="1" vertex="1">
                    <mxGeometry x="-1610" y="-1243" width="180" height="60" as="geometry"/>
                </mxCell>
                <mxCell id="364" style="edgeStyle=none;html=1;labelBackgroundColor=none;fontSize=12;" parent="1" source="349" target="350" edge="1">
                    <mxGeometry relative="1" as="geometry"/>
                </mxCell>
                <mxCell id="349" value="&lt;div style=&quot;color: rgb(204, 204, 204); font-family: Menlo, Monaco, &amp;quot;Courier New&amp;quot;, monospace; font-weight: normal; font-size: 12px; line-height: 18px;&quot;&gt;&lt;div style=&quot;line-height: 18px; font-size: 12px;&quot;&gt;&lt;div style=&quot;line-height: 18px; font-size: 12px;&quot;&gt;&lt;div style=&quot;line-height: 18px; font-size: 12px;&quot;&gt;&lt;span style=&quot;color: rgb(156, 220, 254); font-size: 12px;&quot;&gt;cursor&lt;/span&gt;.&lt;span style=&quot;color: rgb(156, 220, 254); font-size: 12px;&quot;&gt;carriagereturn&lt;/span&gt; &lt;span style=&quot;color: rgb(212, 212, 212); font-size: 12px;&quot;&gt;=&lt;/span&gt; &lt;span style=&quot;color: rgb(220, 220, 170); font-size: 12px;&quot;&gt;_carriagereturn&lt;/span&gt;&lt;/div&gt;&lt;/div&gt;&lt;/div&gt;&lt;/div&gt;" style="rounded=1;whiteSpace=wrap;html=1;labelBackgroundColor=none;flipH=1;flipV=1;shadow=0;labelBorderColor=none;fillColor=#333333;fontSize=12;" parent="1" vertex="1">
                    <mxGeometry x="-1610" y="-1155" width="180" height="60" as="geometry"/>
                </mxCell>
                <mxCell id="365" style="edgeStyle=none;html=1;labelBackgroundColor=none;fontSize=12;" parent="1" source="350" target="351" edge="1">
                    <mxGeometry relative="1" as="geometry"/>
                </mxCell>
                <mxCell id="350" value="&lt;div style=&quot;color: rgb(204, 204, 204); font-family: Menlo, Monaco, &amp;quot;Courier New&amp;quot;, monospace; font-weight: normal; font-size: 12px; line-height: 18px;&quot;&gt;&lt;div style=&quot;line-height: 18px; font-size: 12px;&quot;&gt;&lt;div style=&quot;line-height: 18px; font-size: 12px;&quot;&gt;&lt;div style=&quot;line-height: 18px; font-size: 12px;&quot;&gt;&lt;span style=&quot;color: rgb(156, 220, 254); font-size: 12px;&quot;&gt;cursor&lt;/span&gt;.&lt;span style=&quot;color: rgb(156, 220, 254); font-size: 12px;&quot;&gt;update&lt;/span&gt; &lt;span style=&quot;color: rgb(212, 212, 212); font-size: 12px;&quot;&gt;=&lt;/span&gt; &lt;span style=&quot;color: rgb(220, 220, 170); font-size: 12px;&quot;&gt;_update&lt;/span&gt;&lt;/div&gt;&lt;/div&gt;&lt;/div&gt;&lt;/div&gt;" style="rounded=1;whiteSpace=wrap;html=1;labelBackgroundColor=none;flipH=1;flipV=1;shadow=0;labelBorderColor=none;fillColor=#333333;fontSize=12;" parent="1" vertex="1">
                    <mxGeometry x="-1610" y="-1067" width="180" height="60" as="geometry"/>
                </mxCell>
                <mxCell id="367" style="edgeStyle=none;html=1;labelBackgroundColor=none;fontSize=12;" parent="1" source="351" target="366" edge="1">
                    <mxGeometry relative="1" as="geometry"/>
                </mxCell>
                <mxCell id="351" value="&lt;div style=&quot;color: rgb(204, 204, 204); font-family: Menlo, Monaco, &amp;quot;Courier New&amp;quot;, monospace; font-weight: normal; font-size: 12px; line-height: 18px;&quot;&gt;&lt;div style=&quot;line-height: 18px; font-size: 12px;&quot;&gt;&lt;div style=&quot;line-height: 18px; font-size: 12px;&quot;&gt;&lt;div style=&quot;line-height: 18px; font-size: 12px;&quot;&gt;&lt;span style=&quot;color: rgb(156, 220, 254); font-size: 12px;&quot;&gt;cursor&lt;/span&gt;.&lt;span style=&quot;color: rgb(156, 220, 254); font-size: 12px;&quot;&gt;testWordOverflow&lt;/span&gt; &lt;span style=&quot;color: rgb(212, 212, 212); font-size: 12px;&quot;&gt;=&lt;/span&gt; &lt;span style=&quot;color: rgb(220, 220, 170); font-size: 12px;&quot;&gt;_testWordOverflow&lt;/span&gt;&lt;/div&gt;&lt;/div&gt;&lt;/div&gt;&lt;/div&gt;" style="rounded=1;whiteSpace=wrap;html=1;labelBackgroundColor=none;flipH=1;flipV=1;shadow=0;labelBorderColor=none;fillColor=#333333;fontSize=12;" parent="1" vertex="1">
                    <mxGeometry x="-1610" y="-979" width="180" height="60" as="geometry"/>
                </mxCell>
                <mxCell id="366" value="&lt;div style=&quot;color: rgb(204, 204, 204); font-family: Menlo, Monaco, &amp;quot;Courier New&amp;quot;, monospace; line-height: 18px; font-size: 12px;&quot;&gt;&lt;div style=&quot;line-height: 18px; font-size: 12px;&quot;&gt;&lt;div style=&quot;line-height: 18px; font-size: 12px;&quot;&gt;&lt;div style=&quot;line-height: 18px; font-size: 12px;&quot;&gt;&lt;div style=&quot;line-height: 18px; font-size: 12px;&quot;&gt;&lt;div style=&quot;line-height: 18px; font-size: 12px;&quot;&gt;&lt;span style=&quot;color: rgb(156, 220, 254); font-size: 12px;&quot;&gt;cursor&lt;/span&gt;&lt;br style=&quot;font-size: 12px;&quot;&gt;&lt;/div&gt;&lt;/div&gt;&lt;/div&gt;&lt;/div&gt;&lt;/div&gt;&lt;/div&gt;" style="strokeWidth=2;html=1;shape=mxgraph.flowchart.terminator;whiteSpace=wrap;labelBackgroundColor=none;flipH=1;flipV=1;shadow=0;labelBorderColor=none;fillColor=#333333;fontSize=12;" parent="1" vertex="1">
                    <mxGeometry x="-1595" y="-889" width="150" height="50" as="geometry"/>
                </mxCell>
                <mxCell id="382" style="edgeStyle=none;html=1;entryX=0.5;entryY=0;entryDx=0;entryDy=0;labelBackgroundColor=none;fontSize=12;" parent="1" source="368" target="375" edge="1">
                    <mxGeometry relative="1" as="geometry"/>
                </mxCell>
                <mxCell id="368" value="&lt;div style=&quot;color: rgb(204, 204, 204); font-family: Menlo, Monaco, &amp;quot;Courier New&amp;quot;, monospace; line-height: 18px; font-size: 12px;&quot;&gt;&lt;div style=&quot;line-height: 18px; font-size: 12px;&quot;&gt;&lt;span style=&quot;color: rgb(220, 220, 170); font-size: 12px;&quot;&gt;_testWordOverflow()&lt;/span&gt;&lt;/div&gt;&lt;/div&gt;" style="strokeWidth=2;html=1;shape=mxgraph.flowchart.start_1;whiteSpace=wrap;labelBackgroundColor=none;flipH=1;flipV=1;shadow=0;labelBorderColor=none;fillColor=#333333;fontSize=12;" parent="1" vertex="1">
                    <mxGeometry x="-1344" y="-2209" width="160" height="60" as="geometry"/>
                </mxCell>
                <mxCell id="388" style="edgeStyle=none;html=1;labelBackgroundColor=none;fontSize=12;" parent="1" source="369" target="383" edge="1">
                    <mxGeometry relative="1" as="geometry"/>
                </mxCell>
                <mxCell id="369" value="&lt;div style=&quot;color: rgb(204, 204, 204); font-family: Menlo, Monaco, &amp;quot;Courier New&amp;quot;, monospace; line-height: 18px; font-size: 12px;&quot;&gt;&lt;div style=&quot;line-height: 18px; font-size: 12px;&quot;&gt;&lt;div style=&quot;line-height: 18px; font-size: 12px;&quot;&gt;&lt;span style=&quot;color: rgb(220, 220, 170); font-size: 12px;&quot;&gt;_iswithinBounds&lt;/span&gt;&lt;/div&gt;&lt;/div&gt;&lt;/div&gt;" style="strokeWidth=2;html=1;shape=mxgraph.flowchart.start_1;whiteSpace=wrap;labelBackgroundColor=none;flipH=1;flipV=1;shadow=0;labelBorderColor=none;fillColor=#333333;fontSize=12;" parent="1" vertex="1">
                    <mxGeometry x="-1358.63" y="-1345" width="160" height="60" as="geometry"/>
                </mxCell>
                <mxCell id="399" style="edgeStyle=none;html=1;entryX=0.5;entryY=0;entryDx=0;entryDy=0;labelBackgroundColor=none;fontSize=12;" parent="1" source="370" target="389" edge="1">
                    <mxGeometry relative="1" as="geometry"/>
                </mxCell>
                <mxCell id="370" value="&lt;div style=&quot;color: rgb(204, 204, 204); font-family: Menlo, Monaco, &amp;quot;Courier New&amp;quot;, monospace; line-height: 18px; font-size: 12px;&quot;&gt;&lt;div style=&quot;line-height: 18px; font-size: 12px;&quot;&gt;&lt;div style=&quot;line-height: 18px; font-size: 12px;&quot;&gt;&lt;div style=&quot;line-height: 18px; font-size: 12px;&quot;&gt;&lt;span style=&quot;color: rgb(220, 220, 170); font-size: 12px;&quot;&gt;_set&lt;/span&gt;&lt;/div&gt;&lt;/div&gt;&lt;/div&gt;&lt;/div&gt;" style="strokeWidth=2;html=1;shape=mxgraph.flowchart.start_1;whiteSpace=wrap;labelBackgroundColor=none;flipH=1;flipV=1;shadow=0;labelBorderColor=none;fillColor=#333333;fontSize=12;" parent="1" vertex="1">
                    <mxGeometry x="-918.63" y="-2219" width="160" height="60" as="geometry"/>
                </mxCell>
                <mxCell id="419" style="edgeStyle=none;html=1;labelBackgroundColor=none;fontSize=12;" parent="1" source="371" target="401" edge="1">
                    <mxGeometry relative="1" as="geometry"/>
                </mxCell>
                <mxCell id="371" value="&lt;div style=&quot;color: rgb(204, 204, 204); font-family: Menlo, Monaco, &amp;quot;Courier New&amp;quot;, monospace; line-height: 18px; font-size: 12px;&quot;&gt;&lt;div style=&quot;line-height: 18px; font-size: 12px;&quot;&gt;&lt;div style=&quot;line-height: 18px; font-size: 12px;&quot;&gt;&lt;div style=&quot;line-height: 18px; font-size: 12px;&quot;&gt;&lt;div style=&quot;line-height: 18px; font-size: 12px;&quot;&gt;&lt;span style=&quot;color: rgb(220, 220, 170); font-size: 12px;&quot;&gt;_move&lt;/span&gt;&lt;/div&gt;&lt;/div&gt;&lt;/div&gt;&lt;/div&gt;&lt;/div&gt;" style="strokeWidth=2;html=1;shape=mxgraph.flowchart.start_1;whiteSpace=wrap;labelBackgroundColor=none;flipH=1;flipV=1;shadow=0;labelBorderColor=none;fillColor=#333333;fontSize=12;" parent="1" vertex="1">
                    <mxGeometry x="-449.99" y="-2220" width="160" height="60" as="geometry"/>
                </mxCell>
                <mxCell id="432" style="edgeStyle=none;html=1;entryX=0.5;entryY=0;entryDx=0;entryDy=0;labelBackgroundColor=none;fontSize=12;" parent="1" source="372" target="429" edge="1">
                    <mxGeometry relative="1" as="geometry"/>
                </mxCell>
                <mxCell id="372" value="&lt;div style=&quot;color: rgb(204, 204, 204); font-family: Menlo, Monaco, &amp;quot;Courier New&amp;quot;, monospace; line-height: 18px; font-size: 12px;&quot;&gt;&lt;div style=&quot;line-height: 18px; font-size: 12px;&quot;&gt;&lt;div style=&quot;line-height: 18px; font-size: 12px;&quot;&gt;&lt;div style=&quot;line-height: 18px; font-size: 12px;&quot;&gt;&lt;div style=&quot;line-height: 18px; font-size: 12px;&quot;&gt;&lt;div style=&quot;line-height: 18px; font-size: 12px;&quot;&gt;&lt;span style=&quot;color: rgb(220, 220, 170); font-size: 12px;&quot;&gt;_newline&lt;/span&gt;&lt;/div&gt;&lt;/div&gt;&lt;/div&gt;&lt;/div&gt;&lt;/div&gt;&lt;/div&gt;" style="strokeWidth=2;html=1;shape=mxgraph.flowchart.start_1;whiteSpace=wrap;labelBackgroundColor=none;flipH=1;flipV=1;shadow=0;labelBorderColor=none;fillColor=#333333;fontSize=12;" parent="1" vertex="1">
                    <mxGeometry x="-595" y="-1333" width="160" height="60" as="geometry"/>
                </mxCell>
                <mxCell id="423" style="edgeStyle=none;html=1;labelBackgroundColor=none;fontSize=12;" parent="1" source="373" target="421" edge="1">
                    <mxGeometry relative="1" as="geometry"/>
                </mxCell>
                <mxCell id="373" value="&lt;div style=&quot;color: rgb(204, 204, 204); font-family: Menlo, Monaco, &amp;quot;Courier New&amp;quot;, monospace; line-height: 18px; font-size: 12px;&quot;&gt;&lt;div style=&quot;line-height: 18px; font-size: 12px;&quot;&gt;&lt;div style=&quot;line-height: 18px; font-size: 12px;&quot;&gt;&lt;div style=&quot;line-height: 18px; font-size: 12px;&quot;&gt;&lt;div style=&quot;line-height: 18px; font-size: 12px;&quot;&gt;&lt;div style=&quot;line-height: 18px; font-size: 12px;&quot;&gt;&lt;div style=&quot;line-height: 18px; font-size: 12px;&quot;&gt;&lt;span style=&quot;color: rgb(220, 220, 170); font-size: 12px;&quot;&gt;_update&lt;/span&gt;&lt;/div&gt;&lt;/div&gt;&lt;/div&gt;&lt;/div&gt;&lt;/div&gt;&lt;/div&gt;&lt;/div&gt;" style="strokeWidth=2;html=1;shape=mxgraph.flowchart.start_1;whiteSpace=wrap;labelBackgroundColor=none;flipH=1;flipV=1;shadow=0;labelBorderColor=none;fillColor=#333333;fontSize=12;" parent="1" vertex="1">
                    <mxGeometry x="-860" y="-1333" width="160" height="60" as="geometry"/>
                </mxCell>
                <mxCell id="436" style="edgeStyle=none;html=1;entryX=0.5;entryY=0;entryDx=0;entryDy=0;labelBackgroundColor=none;fontSize=12;" parent="1" source="374" target="434" edge="1">
                    <mxGeometry relative="1" as="geometry"/>
                </mxCell>
                <mxCell id="374" value="&lt;div style=&quot;color: rgb(204, 204, 204); font-family: Menlo, Monaco, &amp;quot;Courier New&amp;quot;, monospace; line-height: 18px; font-size: 12px;&quot;&gt;&lt;div style=&quot;line-height: 18px; font-size: 12px;&quot;&gt;&lt;div style=&quot;line-height: 18px; font-size: 12px;&quot;&gt;&lt;div style=&quot;line-height: 18px; font-size: 12px;&quot;&gt;&lt;div style=&quot;line-height: 18px; font-size: 12px;&quot;&gt;&lt;div style=&quot;line-height: 18px; font-size: 12px;&quot;&gt;&lt;div style=&quot;line-height: 18px; font-size: 12px;&quot;&gt;&lt;div style=&quot;line-height: 18px; font-size: 12px;&quot;&gt;&lt;span style=&quot;color: rgb(220, 220, 170); font-size: 12px;&quot;&gt;_carriagereturn&lt;/span&gt;&lt;/div&gt;&lt;/div&gt;&lt;/div&gt;&lt;/div&gt;&lt;/div&gt;&lt;/div&gt;&lt;/div&gt;&lt;/div&gt;" style="strokeWidth=2;html=1;shape=mxgraph.flowchart.start_1;whiteSpace=wrap;labelBackgroundColor=none;flipH=1;flipV=1;shadow=0;labelBorderColor=none;fillColor=#333333;fontSize=12;" parent="1" vertex="1">
                    <mxGeometry x="-334.99" y="-1333" width="160" height="60" as="geometry"/>
                </mxCell>
                <mxCell id="381" style="edgeStyle=none;html=1;entryX=0.5;entryY=0;entryDx=0;entryDy=0;labelBackgroundColor=none;fontSize=12;" parent="1" source="375" target="376" edge="1">
                    <mxGeometry relative="1" as="geometry"/>
                </mxCell>
                <mxCell id="375" value="&lt;div style=&quot;color: rgb(204, 204, 204); font-family: Menlo, Monaco, &amp;quot;Courier New&amp;quot;, monospace; font-weight: normal; font-size: 12px; line-height: 18px;&quot;&gt;&lt;div style=&quot;line-height: 18px; font-size: 12px;&quot;&gt;&lt;div style=&quot;line-height: 18px; font-size: 12px;&quot;&gt;&lt;div style=&quot;line-height: 18px; font-size: 12px;&quot;&gt;&lt;span style=&quot;color: rgb(156, 220, 254); font-size: 12px;&quot;&gt;length&lt;/span&gt; &lt;span style=&quot;color: rgb(212, 212, 212); font-size: 12px;&quot;&gt;=&lt;/span&gt; &lt;span style=&quot;color: rgb(220, 220, 170); font-size: 12px;&quot;&gt;strlen&lt;/span&gt;(&lt;span style=&quot;color: rgb(156, 220, 254); font-size: 12px;&quot;&gt;word&lt;/span&gt;)&lt;/div&gt;&lt;div style=&quot;line-height: 18px; font-size: 12px;&quot;&gt;&lt;span style=&quot;color: rgb(212, 212, 212); font-size: 12px;&quot;&gt;-&lt;/span&gt; &lt;span style=&quot;color: rgb(181, 206, 168); font-size: 12px;&quot;&gt;1&lt;/span&gt;&lt;/div&gt;&lt;/div&gt;&lt;/div&gt;&lt;/div&gt;" style="rounded=1;whiteSpace=wrap;html=1;labelBackgroundColor=none;flipH=1;flipV=1;shadow=0;labelBorderColor=none;fillColor=#333333;fontSize=12;" parent="1" vertex="1">
                    <mxGeometry x="-1354" y="-2121" width="180" height="60" as="geometry"/>
                </mxCell>
                <mxCell id="379" value="yes" style="edgeStyle=none;html=1;entryX=1;entryY=0.5;entryDx=0;entryDy=0;entryPerimeter=0;labelBackgroundColor=none;fontSize=12;" parent="1" source="376" target="378" edge="1">
                    <mxGeometry x="0.1111" y="14" relative="1" as="geometry">
                        <mxPoint as="offset"/>
                    </mxGeometry>
                </mxCell>
                <mxCell id="380" value="no" style="edgeStyle=none;html=1;labelBackgroundColor=none;fontSize=12;" parent="1" source="376" target="377" edge="1">
                    <mxGeometry x="-0.4483" y="11" relative="1" as="geometry">
                        <mxPoint as="offset"/>
                    </mxGeometry>
                </mxCell>
                <mxCell id="376" value="&lt;div style=&quot;font-family: Menlo, Monaco, &amp;quot;Courier New&amp;quot;, monospace; font-weight: normal; font-size: 12px; line-height: 18px;&quot;&gt;&lt;span style=&quot;color: rgb(204, 204, 204); font-size: 12px;&quot;&gt;&lt;/span&gt;&lt;div style=&quot;line-height: 18px; font-size: 12px;&quot;&gt;&lt;span style=&quot;color: rgb(197, 134, 192); font-size: 12px;&quot;&gt;if&lt;/span&gt;&lt;span style=&quot;color: rgb(204, 204, 204); font-size: 12px;&quot;&gt; (&lt;/span&gt;&lt;/div&gt;&lt;div style=&quot;line-height: 18px; font-size: 12px;&quot;&gt;&lt;span style=&quot;color: rgb(204, 204, 204); font-size: 12px;&quot;&gt;(&lt;/span&gt;&lt;span style=&quot;color: rgb(156, 220, 254); font-size: 12px;&quot;&gt;posisiton&lt;/span&gt;&lt;span style=&quot;color: rgb(204, 204, 204); font-size: 12px;&quot;&gt;.&lt;/span&gt;&lt;span style=&quot;color: rgb(156, 220, 254); font-size: 12px;&quot;&gt;x&lt;/span&gt;&lt;span style=&quot;color: rgb(204, 204, 204); font-size: 12px;&quot;&gt; &lt;/span&gt;&lt;span style=&quot;color: rgb(212, 212, 212); font-size: 12px;&quot;&gt;+&lt;/span&gt;&lt;span style=&quot;color: rgb(204, 204, 204); font-size: 12px;&quot;&gt;&amp;nbsp;&lt;/span&gt;&lt;/div&gt;&lt;div style=&quot;line-height: 18px; font-size: 12px;&quot;&gt;&lt;span style=&quot;color: rgb(204, 204, 204); font-size: 12px;&quot;&gt;((&lt;/span&gt;&lt;span style=&quot;color: rgb(156, 220, 254); font-size: 12px;&quot;&gt;length&lt;/span&gt;&lt;span style=&quot;color: rgb(204, 204, 204); font-size: 12px;&quot;&gt;)&lt;/span&gt;&lt;span style=&quot;color: rgb(212, 212, 212); font-size: 12px;&quot;&gt;*&lt;/span&gt;&lt;span style=&quot;color: rgb(156, 220, 254); font-size: 12px;&quot;&gt;characterSpace&lt;/span&gt;&lt;span style=&quot;color: rgb(204, 204, 204); font-size: 12px;&quot;&gt;)) &lt;/span&gt;&lt;span style=&quot;color: rgb(212, 212, 212); font-size: 12px;&quot;&gt;&amp;gt;&lt;/span&gt;&lt;span style=&quot;color: rgb(156, 220, 254); font-size: 12px;&quot;&gt;maxPosition&lt;/span&gt;&lt;span style=&quot;color: rgb(204, 204, 204); font-size: 12px;&quot;&gt;.&lt;/span&gt;&lt;span style=&quot;color: rgb(156, 220, 254); font-size: 12px;&quot;&gt;x&lt;/span&gt;&lt;/div&gt;&lt;div style=&quot;line-height: 18px; font-size: 12px;&quot;&gt;&lt;span style=&quot;color: rgb(204, 204, 204); font-size: 12px;&quot;&gt;)&lt;/span&gt;&lt;/div&gt;&lt;/div&gt;" style="rhombus;whiteSpace=wrap;html=1;labelBackgroundColor=none;flipH=1;flipV=1;shadow=0;labelBorderColor=none;fillColor=#333333;fontSize=12;" parent="1" vertex="1">
                    <mxGeometry x="-1372.75" y="-2033" width="217.5" height="156" as="geometry"/>
                </mxCell>
                <mxCell id="377" value="&lt;div style=&quot;color: rgb(204, 204, 204); font-family: Menlo, Monaco, &amp;quot;Courier New&amp;quot;, monospace; line-height: 18px; font-size: 12px;&quot;&gt;&lt;div style=&quot;line-height: 18px; font-size: 12px;&quot;&gt;&lt;div style=&quot;line-height: 18px; font-size: 12px;&quot;&gt;&lt;div style=&quot;line-height: 18px; font-size: 12px;&quot;&gt;&lt;div style=&quot;line-height: 18px; font-size: 12px;&quot;&gt;&lt;div style=&quot;line-height: 18px; font-size: 12px;&quot;&gt;&lt;span style=&quot;color: rgb(156, 220, 254); font-size: 12px;&quot;&gt;false&lt;/span&gt;&lt;br style=&quot;font-size: 12px;&quot;&gt;&lt;/div&gt;&lt;/div&gt;&lt;/div&gt;&lt;/div&gt;&lt;/div&gt;&lt;/div&gt;" style="strokeWidth=2;html=1;shape=mxgraph.flowchart.terminator;whiteSpace=wrap;labelBackgroundColor=none;flipH=1;flipV=1;shadow=0;labelBorderColor=none;fillColor=#333333;fontSize=12;" parent="1" vertex="1">
                    <mxGeometry x="-1339" y="-1848" width="150" height="50" as="geometry"/>
                </mxCell>
                <mxCell id="378" value="&lt;div style=&quot;color: rgb(204, 204, 204); font-family: Menlo, Monaco, &amp;quot;Courier New&amp;quot;, monospace; line-height: 18px; font-size: 12px;&quot;&gt;&lt;div style=&quot;line-height: 18px; font-size: 12px;&quot;&gt;&lt;div style=&quot;line-height: 18px; font-size: 12px;&quot;&gt;&lt;div style=&quot;line-height: 18px; font-size: 12px;&quot;&gt;&lt;div style=&quot;line-height: 18px; font-size: 12px;&quot;&gt;&lt;div style=&quot;line-height: 18px; font-size: 12px;&quot;&gt;&lt;span style=&quot;color: rgb(156, 220, 254); font-size: 12px;&quot;&gt;true&lt;/span&gt;&lt;br style=&quot;font-size: 12px;&quot;&gt;&lt;/div&gt;&lt;/div&gt;&lt;/div&gt;&lt;/div&gt;&lt;/div&gt;&lt;/div&gt;" style="strokeWidth=2;html=1;shape=mxgraph.flowchart.terminator;whiteSpace=wrap;labelBackgroundColor=none;flipH=1;flipV=1;shadow=0;labelBorderColor=none;fillColor=#333333;fontSize=12;" parent="1" vertex="1">
                    <mxGeometry x="-1130" y="-1980" width="150" height="50" as="geometry"/>
                </mxCell>
                <mxCell id="386" value="no" style="edgeStyle=none;html=1;labelBackgroundColor=none;fontSize=12;" parent="1" source="383" target="384" edge="1">
                    <mxGeometry x="-0.4736" y="24" relative="1" as="geometry">
                        <mxPoint as="offset"/>
                    </mxGeometry>
                </mxCell>
                <mxCell id="387" value="yes" style="edgeStyle=none;html=1;entryX=1;entryY=0.5;entryDx=0;entryDy=0;entryPerimeter=0;labelBackgroundColor=none;fontSize=12;" parent="1" source="383" target="385" edge="1">
                    <mxGeometry x="-0.0944" y="16" relative="1" as="geometry">
                        <mxPoint as="offset"/>
                    </mxGeometry>
                </mxCell>
                <mxCell id="383" value="&lt;div style=&quot;font-family: Menlo, Monaco, &amp;quot;Courier New&amp;quot;, monospace; font-weight: normal; font-size: 12px; line-height: 18px;&quot;&gt;&lt;span style=&quot;color: rgb(204, 204, 204); font-size: 12px;&quot;&gt;&lt;/span&gt;&lt;div style=&quot;line-height: 18px; font-size: 12px;&quot;&gt;&lt;span style=&quot;color: rgb(197, 134, 192); font-size: 12px;&quot;&gt;if&lt;/span&gt;&lt;span style=&quot;color: rgb(204, 204, 204); font-size: 12px;&quot;&gt;(&lt;/span&gt;&lt;/div&gt;&lt;div style=&quot;line-height: 18px; font-size: 12px;&quot;&gt;&lt;span style=&quot;color: rgb(156, 220, 254); font-size: 12px;&quot;&gt;posisiton &amp;gt; maxPos&amp;nbsp;&lt;/span&gt;&lt;/div&gt;&lt;div style=&quot;line-height: 18px; font-size: 12px;&quot;&gt;&lt;font color=&quot;#9cdcfe&quot; style=&quot;font-size: 12px;&quot;&gt;&lt;span style=&quot;font-size: 12px;&quot;&gt;||&amp;nbsp;&lt;/span&gt;&lt;/font&gt;&lt;span style=&quot;color: rgb(156, 220, 254); font-size: 12px;&quot;&gt;position &amp;lt; minPos&lt;/span&gt;&lt;/div&gt;&lt;div style=&quot;line-height: 18px; font-size: 12px;&quot;&gt;&lt;span style=&quot;color: rgb(204, 204, 204); font-size: 12px;&quot;&gt;)&lt;/span&gt;&lt;br style=&quot;font-size: 12px;&quot;&gt;&lt;/div&gt;&lt;/div&gt;" style="rhombus;whiteSpace=wrap;html=1;labelBackgroundColor=none;flipH=1;flipV=1;shadow=0;labelBorderColor=none;fillColor=#333333;fontSize=12;" parent="1" vertex="1">
                    <mxGeometry x="-1380" y="-1258" width="202.75" height="163" as="geometry"/>
                </mxCell>
                <mxCell id="384" value="&lt;div style=&quot;font-family: Menlo, Monaco, &amp;quot;Courier New&amp;quot;, monospace; line-height: 18px; font-size: 12px;&quot;&gt;&lt;div style=&quot;line-height: 18px; font-size: 12px;&quot;&gt;&lt;div style=&quot;line-height: 18px; font-size: 12px;&quot;&gt;&lt;div style=&quot;line-height: 18px; font-size: 12px;&quot;&gt;&lt;div style=&quot;line-height: 18px; font-size: 12px;&quot;&gt;&lt;div style=&quot;line-height: 18px; font-size: 12px;&quot;&gt;&lt;font color=&quot;#9cdcfe&quot; style=&quot;font-size: 12px;&quot;&gt;&lt;span style=&quot;font-size: 12px;&quot;&gt;true&lt;/span&gt;&lt;/font&gt;&lt;/div&gt;&lt;/div&gt;&lt;/div&gt;&lt;/div&gt;&lt;/div&gt;&lt;/div&gt;" style="strokeWidth=2;html=1;shape=mxgraph.flowchart.terminator;whiteSpace=wrap;labelBackgroundColor=none;flipH=1;flipV=1;shadow=0;labelBorderColor=none;fillColor=#333333;fontSize=12;" parent="1" vertex="1">
                    <mxGeometry x="-1353.6200000000001" y="-1057" width="150" height="50" as="geometry"/>
                </mxCell>
                <mxCell id="385" value="&lt;div style=&quot;color: rgb(204, 204, 204); font-family: Menlo, Monaco, &amp;quot;Courier New&amp;quot;, monospace; line-height: 18px; font-size: 12px;&quot;&gt;&lt;div style=&quot;line-height: 18px; font-size: 12px;&quot;&gt;&lt;div style=&quot;line-height: 18px; font-size: 12px;&quot;&gt;&lt;div style=&quot;line-height: 18px; font-size: 12px;&quot;&gt;&lt;div style=&quot;line-height: 18px; font-size: 12px;&quot;&gt;&lt;div style=&quot;line-height: 18px; font-size: 12px;&quot;&gt;&lt;span style=&quot;color: rgb(156, 220, 254); font-size: 12px;&quot;&gt;false&lt;/span&gt;&lt;br style=&quot;font-size: 12px;&quot;&gt;&lt;/div&gt;&lt;/div&gt;&lt;/div&gt;&lt;/div&gt;&lt;/div&gt;&lt;/div&gt;" style="strokeWidth=2;html=1;shape=mxgraph.flowchart.terminator;whiteSpace=wrap;labelBackgroundColor=none;flipH=1;flipV=1;shadow=0;labelBorderColor=none;fillColor=#333333;fontSize=12;" parent="1" vertex="1">
                    <mxGeometry x="-1144.63" y="-1205" width="150" height="50" as="geometry"/>
                </mxCell>
                <mxCell id="400" style="edgeStyle=none;html=1;entryX=0.5;entryY=0;entryDx=0;entryDy=0;labelBackgroundColor=none;fontSize=12;" parent="1" source="389" target="391" edge="1">
                    <mxGeometry relative="1" as="geometry"/>
                </mxCell>
                <mxCell id="389" value="&lt;div style=&quot;font-family: Menlo, Monaco, &amp;quot;Courier New&amp;quot;, monospace; font-weight: normal; font-size: 12px; line-height: 18px;&quot;&gt;&lt;div style=&quot;line-height: 18px; font-size: 12px;&quot;&gt;&lt;div style=&quot;line-height: 18px; font-size: 12px;&quot;&gt;&lt;div style=&quot;line-height: 18px; font-size: 12px;&quot;&gt;&lt;div style=&quot;color: rgb(204, 204, 204); line-height: 18px; font-size: 12px;&quot;&gt;&lt;span style=&quot;color: rgb(156, 220, 254); font-size: 12px;&quot;&gt;self&lt;/span&gt;-&amp;gt;&lt;span style=&quot;color: rgb(156, 220, 254); font-size: 12px;&quot;&gt;posisiton&lt;/span&gt; &lt;span style=&quot;color: rgb(212, 212, 212); font-size: 12px;&quot;&gt;=&lt;/span&gt; &lt;span style=&quot;color: rgb(156, 220, 254); font-size: 12px;&quot;&gt;position&lt;/span&gt;&lt;/div&gt;&lt;/div&gt;&lt;/div&gt;&lt;/div&gt;&lt;/div&gt;" style="rounded=1;whiteSpace=wrap;html=1;labelBackgroundColor=none;flipH=1;flipV=1;shadow=0;labelBorderColor=none;fillColor=#333333;fontSize=12;" parent="1" vertex="1">
                    <mxGeometry x="-928.63" y="-2119" width="180" height="60" as="geometry"/>
                </mxCell>
                <mxCell id="394" value="yes" style="edgeStyle=none;html=1;labelBackgroundColor=none;fontSize=12;" parent="1" source="390" target="392" edge="1">
                    <mxGeometry x="0.0127" y="19" relative="1" as="geometry">
                        <mxPoint as="offset"/>
                    </mxGeometry>
                </mxCell>
                <mxCell id="397" value="no" style="edgeStyle=none;html=1;labelBackgroundColor=none;fontSize=12;" parent="1" source="390" target="396" edge="1">
                    <mxGeometry relative="1" as="geometry"/>
                </mxCell>
                <mxCell id="390" value="&lt;div style=&quot;font-family: Menlo, Monaco, &amp;quot;Courier New&amp;quot;, monospace; font-weight: normal; font-size: 12px; line-height: 18px;&quot;&gt;&lt;span style=&quot;color: rgb(204, 204, 204); font-size: 12px;&quot;&gt;&lt;/span&gt;&lt;div style=&quot;line-height: 18px; font-size: 12px;&quot;&gt;&lt;span style=&quot;color: rgb(197, 134, 192); font-size: 12px;&quot;&gt;if&lt;/span&gt;&lt;span style=&quot;color: rgb(204, 204, 204); font-size: 12px;&quot;&gt;(&lt;/span&gt;&lt;/div&gt;&lt;div style=&quot;line-height: 18px; font-size: 12px;&quot;&gt;&lt;font color=&quot;#9cdcfe&quot; style=&quot;font-size: 12px;&quot;&gt;!&lt;/font&gt;&lt;span style=&quot;color: rgb(220, 220, 170); font-size: 12px;&quot;&gt;_iswithinBounds&lt;/span&gt;&lt;span style=&quot;color: rgb(204, 204, 204); font-size: 12px;&quot;&gt;()&lt;/span&gt;&lt;/div&gt;&lt;div style=&quot;line-height: 18px; font-size: 12px;&quot;&gt;&lt;span style=&quot;color: rgb(204, 204, 204); font-size: 12px;&quot;&gt;)&lt;/span&gt;&lt;br style=&quot;font-size: 12px;&quot;&gt;&lt;/div&gt;&lt;/div&gt;" style="rhombus;whiteSpace=wrap;html=1;labelBackgroundColor=none;flipH=1;flipV=1;shadow=0;labelBorderColor=none;fillColor=#333333;fontSize=12;" parent="1" vertex="1">
                    <mxGeometry x="-940.005" y="-1943" width="202.75" height="163" as="geometry"/>
                </mxCell>
                <mxCell id="398" style="edgeStyle=none;html=1;labelBackgroundColor=none;fontSize=12;" parent="1" source="391" target="390" edge="1">
                    <mxGeometry relative="1" as="geometry"/>
                </mxCell>
                <mxCell id="391" value="&lt;div style=&quot;color: rgb(204, 204, 204); font-family: Menlo, Monaco, &amp;quot;Courier New&amp;quot;, monospace; line-height: 18px; font-size: 12px;&quot;&gt;&lt;span style=&quot;color: rgb(220, 220, 170); font-size: 12px;&quot;&gt;_iswithinBounds&lt;/span&gt;()&lt;/div&gt;" style="shape=process;whiteSpace=wrap;html=1;backgroundOutline=1;labelBackgroundColor=none;flipH=1;flipV=1;shadow=0;labelBorderColor=none;fillColor=#333333;fontSize=12;" parent="1" vertex="1">
                    <mxGeometry x="-923.13" y="-2020" width="169" height="58" as="geometry"/>
                </mxCell>
                <mxCell id="395" style="edgeStyle=none;html=1;entryX=0.5;entryY=1;entryDx=0;entryDy=0;entryPerimeter=0;labelBackgroundColor=none;fontSize=12;" parent="1" source="392" target="393" edge="1">
                    <mxGeometry relative="1" as="geometry"/>
                </mxCell>
                <mxCell id="392" value="&lt;div style=&quot;color: rgb(204, 204, 204); font-family: Menlo, Monaco, &amp;quot;Courier New&amp;quot;, monospace; line-height: 18px; font-size: 12px;&quot;&gt;&lt;span style=&quot;color: rgb(220, 220, 170); font-size: 12px;&quot;&gt;ErrorHandler&lt;/span&gt;()&lt;/div&gt;" style="shape=process;whiteSpace=wrap;html=1;backgroundOutline=1;labelBackgroundColor=none;flipH=1;flipV=1;shadow=0;labelBorderColor=none;fillColor=#333333;fontSize=12;" parent="1" vertex="1">
                    <mxGeometry x="-671.63" y="-1887" width="150" height="58" as="geometry"/>
                </mxCell>
                <mxCell id="393" value="&lt;div style=&quot;color: rgb(204, 204, 204); font-family: Menlo, Monaco, &amp;quot;Courier New&amp;quot;, monospace; line-height: 18px; font-size: 12px;&quot;&gt;&lt;div style=&quot;line-height: 18px; font-size: 12px;&quot;&gt;&lt;div style=&quot;line-height: 18px; font-size: 12px;&quot;&gt;&lt;div style=&quot;line-height: 18px; font-size: 12px;&quot;&gt;&lt;div style=&quot;line-height: 18px; font-size: 12px;&quot;&gt;&lt;span style=&quot;color: rgb(79, 193, 255); font-size: 12px;&quot;&gt;CURSOR_OUT_OF_BOUNDS&lt;/span&gt;&lt;/div&gt;&lt;/div&gt;&lt;/div&gt;&lt;/div&gt;&lt;/div&gt;" style="strokeWidth=2;html=1;shape=mxgraph.flowchart.terminator;whiteSpace=wrap;labelBackgroundColor=none;flipH=1;flipV=1;shadow=0;labelBorderColor=none;fillColor=#333333;fontSize=12;" parent="1" vertex="1">
                    <mxGeometry x="-711.63" y="-1792" width="230" height="60" as="geometry"/>
                </mxCell>
                <mxCell id="396" value="&lt;div style=&quot;color: rgb(204, 204, 204); font-family: Menlo, Monaco, &amp;quot;Courier New&amp;quot;, monospace; line-height: 18px; font-size: 12px;&quot;&gt;&lt;span style=&quot;color: rgb(79, 193, 255); font-size: 12px;&quot;&gt;SUCCESS&lt;/span&gt;&lt;/div&gt;" style="strokeWidth=2;html=1;shape=mxgraph.flowchart.terminator;whiteSpace=wrap;labelBackgroundColor=none;flipH=1;flipV=1;shadow=0;labelBorderColor=none;fillColor=#333333;fontSize=12;" parent="1" vertex="1">
                    <mxGeometry x="-893.63" y="-1749" width="110" height="50" as="geometry"/>
                </mxCell>
                <mxCell id="420" style="edgeStyle=none;html=1;entryX=0.5;entryY=0;entryDx=0;entryDy=0;labelBackgroundColor=none;fontSize=12;" parent="1" source="401" target="414" edge="1">
                    <mxGeometry relative="1" as="geometry"/>
                </mxCell>
                <mxCell id="401" value="&lt;div style=&quot;color: rgb(204, 204, 204); font-family: Menlo, Monaco, &amp;quot;Courier New&amp;quot;, monospace; line-height: 18px; font-size: 12px;&quot;&gt;&lt;div style=&quot;line-height: 18px; font-size: 12px;&quot;&gt;&lt;span style=&quot;color: rgb(156, 220, 254); font-size: 12px;&quot;&gt;self&lt;/span&gt;-&amp;gt;&lt;span style=&quot;color: rgb(156, 220, 254); font-size: 12px;&quot;&gt;posisiton&lt;/span&gt; &lt;span style=&quot;color: rgb(212, 212, 212); font-size: 12px;&quot;&gt;=&lt;/span&gt; &lt;span style=&quot;color: rgb(220, 220, 170); font-size: 12px;&quot;&gt;AddCoord2D&lt;/span&gt;(&lt;span style=&quot;color: rgb(156, 220, 254); font-size: 12px;&quot;&gt;self&lt;/span&gt;-&amp;gt;&lt;span style=&quot;color: rgb(156, 220, 254); font-size: 12px;&quot;&gt;posisiton&lt;/span&gt;, &lt;span style=&quot;color: rgb(156, 220, 254); font-size: 12px;&quot;&gt;delta&lt;/span&gt;)&lt;/div&gt;&lt;/div&gt;" style="shape=process;whiteSpace=wrap;html=1;backgroundOutline=1;labelBackgroundColor=none;flipH=1;flipV=1;shadow=0;labelBorderColor=none;fillColor=#333333;fontSize=12;" parent="1" vertex="1">
                    <mxGeometry x="-459.49" y="-2132" width="179" height="58" as="geometry"/>
                </mxCell>
                <mxCell id="402" value="yes" style="edgeStyle=none;html=1;labelBackgroundColor=none;fontSize=12;" parent="1" source="404" target="408" edge="1">
                    <mxGeometry x="0.0127" y="19" relative="1" as="geometry">
                        <mxPoint as="offset"/>
                    </mxGeometry>
                </mxCell>
                <mxCell id="403" value="no" style="edgeStyle=none;html=1;labelBackgroundColor=none;fontSize=12;" parent="1" source="404" target="410" edge="1">
                    <mxGeometry relative="1" as="geometry"/>
                </mxCell>
                <mxCell id="404" value="&lt;div style=&quot;font-family: Menlo, Monaco, &amp;quot;Courier New&amp;quot;, monospace; font-weight: normal; font-size: 12px; line-height: 18px;&quot;&gt;&lt;span style=&quot;color: rgb(204, 204, 204); font-size: 12px;&quot;&gt;&lt;/span&gt;&lt;div style=&quot;line-height: 18px; font-size: 12px;&quot;&gt;&lt;span style=&quot;color: rgb(197, 134, 192); font-size: 12px;&quot;&gt;if&lt;/span&gt;&lt;span style=&quot;color: rgb(204, 204, 204); font-size: 12px;&quot;&gt;(&lt;/span&gt;&lt;/div&gt;&lt;div style=&quot;line-height: 18px; font-size: 12px;&quot;&gt;&lt;font color=&quot;#9cdcfe&quot; style=&quot;font-size: 12px;&quot;&gt;!&lt;/font&gt;&lt;span style=&quot;color: rgb(220, 220, 170); font-size: 12px;&quot;&gt;_iswithinBounds&lt;/span&gt;&lt;span style=&quot;color: rgb(204, 204, 204); font-size: 12px;&quot;&gt;()&lt;/span&gt;&lt;/div&gt;&lt;div style=&quot;line-height: 18px; font-size: 12px;&quot;&gt;&lt;span style=&quot;color: rgb(204, 204, 204); font-size: 12px;&quot;&gt;)&lt;/span&gt;&lt;br style=&quot;font-size: 12px;&quot;&gt;&lt;/div&gt;&lt;/div&gt;" style="rhombus;whiteSpace=wrap;html=1;labelBackgroundColor=none;flipH=1;flipV=1;shadow=0;labelBorderColor=none;fillColor=#333333;fontSize=12;" parent="1" vertex="1">
                    <mxGeometry x="-469.995" y="-1683" width="202.75" height="163" as="geometry"/>
                </mxCell>
                <mxCell id="405" style="edgeStyle=none;html=1;labelBackgroundColor=none;fontSize=12;" parent="1" source="406" target="404" edge="1">
                    <mxGeometry relative="1" as="geometry"/>
                </mxCell>
                <mxCell id="406" value="&lt;div style=&quot;color: rgb(204, 204, 204); font-family: Menlo, Monaco, &amp;quot;Courier New&amp;quot;, monospace; line-height: 18px; font-size: 12px;&quot;&gt;&lt;span style=&quot;color: rgb(220, 220, 170); font-size: 12px;&quot;&gt;_iswithinBounds&lt;/span&gt;()&lt;/div&gt;" style="shape=process;whiteSpace=wrap;html=1;backgroundOutline=1;labelBackgroundColor=none;flipH=1;flipV=1;shadow=0;labelBorderColor=none;fillColor=#333333;fontSize=12;" parent="1" vertex="1">
                    <mxGeometry x="-453.12" y="-1760" width="169" height="58" as="geometry"/>
                </mxCell>
                <mxCell id="407" style="edgeStyle=none;html=1;entryX=0.5;entryY=1;entryDx=0;entryDy=0;entryPerimeter=0;labelBackgroundColor=none;fontSize=12;" parent="1" source="408" target="409" edge="1">
                    <mxGeometry relative="1" as="geometry"/>
                </mxCell>
                <mxCell id="408" value="&lt;div style=&quot;color: rgb(204, 204, 204); font-family: Menlo, Monaco, &amp;quot;Courier New&amp;quot;, monospace; line-height: 18px; font-size: 12px;&quot;&gt;&lt;span style=&quot;color: rgb(220, 220, 170); font-size: 12px;&quot;&gt;ErrorHandler&lt;/span&gt;()&lt;/div&gt;" style="shape=process;whiteSpace=wrap;html=1;backgroundOutline=1;labelBackgroundColor=none;flipH=1;flipV=1;shadow=0;labelBorderColor=none;fillColor=#333333;fontSize=12;" parent="1" vertex="1">
                    <mxGeometry x="-201.62" y="-1627" width="150" height="58" as="geometry"/>
                </mxCell>
                <mxCell id="409" value="&lt;div style=&quot;color: rgb(204, 204, 204); font-family: Menlo, Monaco, &amp;quot;Courier New&amp;quot;, monospace; line-height: 18px; font-size: 12px;&quot;&gt;&lt;div style=&quot;line-height: 18px; font-size: 12px;&quot;&gt;&lt;div style=&quot;line-height: 18px; font-size: 12px;&quot;&gt;&lt;div style=&quot;line-height: 18px; font-size: 12px;&quot;&gt;&lt;div style=&quot;line-height: 18px; font-size: 12px;&quot;&gt;&lt;span style=&quot;color: rgb(79, 193, 255); font-size: 12px;&quot;&gt;CURSOR_OUT_OF_BOUNDS&lt;/span&gt;&lt;/div&gt;&lt;/div&gt;&lt;/div&gt;&lt;/div&gt;&lt;/div&gt;" style="strokeWidth=2;html=1;shape=mxgraph.flowchart.terminator;whiteSpace=wrap;labelBackgroundColor=none;flipH=1;flipV=1;shadow=0;labelBorderColor=none;fillColor=#333333;fontSize=12;" parent="1" vertex="1">
                    <mxGeometry x="-241.62" y="-1532" width="230" height="60" as="geometry"/>
                </mxCell>
                <mxCell id="410" value="&lt;div style=&quot;color: rgb(204, 204, 204); font-family: Menlo, Monaco, &amp;quot;Courier New&amp;quot;, monospace; line-height: 18px; font-size: 12px;&quot;&gt;&lt;span style=&quot;color: rgb(79, 193, 255); font-size: 12px;&quot;&gt;SUCCESS&lt;/span&gt;&lt;/div&gt;" style="strokeWidth=2;html=1;shape=mxgraph.flowchart.terminator;whiteSpace=wrap;labelBackgroundColor=none;flipH=1;flipV=1;shadow=0;labelBorderColor=none;fillColor=#333333;fontSize=12;" parent="1" vertex="1">
                    <mxGeometry x="-423.62" y="-1489" width="110" height="50" as="geometry"/>
                </mxCell>
                <mxCell id="411" value="yes" style="edgeStyle=none;html=1;labelBackgroundColor=none;fontSize=12;" parent="1" source="412" target="416" edge="1">
                    <mxGeometry x="0.0127" y="19" relative="1" as="geometry">
                        <mxPoint as="offset"/>
                    </mxGeometry>
                </mxCell>
                <mxCell id="418" value="no" style="edgeStyle=none;html=1;entryX=0.5;entryY=0;entryDx=0;entryDy=0;labelBackgroundColor=none;fontSize=12;" parent="1" source="412" target="406" edge="1">
                    <mxGeometry x="-0.5385" y="19" relative="1" as="geometry">
                        <mxPoint as="offset"/>
                    </mxGeometry>
                </mxCell>
                <mxCell id="412" value="&lt;div style=&quot;font-family: Menlo, Monaco, &amp;quot;Courier New&amp;quot;, monospace; font-weight: normal; font-size: 12px; line-height: 18px;&quot;&gt;&lt;span style=&quot;color: rgb(204, 204, 204); font-size: 12px;&quot;&gt;&lt;/span&gt;&lt;div style=&quot;line-height: 18px; font-size: 12px;&quot;&gt;&lt;span style=&quot;color: rgb(197, 134, 192); font-size: 12px;&quot;&gt;if&lt;/span&gt;&lt;span style=&quot;color: rgb(204, 204, 204); font-size: 12px;&quot;&gt;(&lt;/span&gt;&lt;/div&gt;&lt;div style=&quot;line-height: 18px; font-size: 12px;&quot;&gt;&lt;font color=&quot;#9cdcfe&quot; style=&quot;font-size: 12px;&quot;&gt;!&lt;/font&gt;&lt;span style=&quot;color: rgb(220, 220, 170); font-size: 12px;&quot;&gt;_iswithinBounds&lt;/span&gt;&lt;span style=&quot;color: rgb(204, 204, 204); font-size: 12px;&quot;&gt;()&lt;/span&gt;&lt;/div&gt;&lt;div style=&quot;line-height: 18px; font-size: 12px;&quot;&gt;&lt;span style=&quot;color: rgb(204, 204, 204); font-size: 12px;&quot;&gt;)&lt;/span&gt;&lt;br style=&quot;font-size: 12px;&quot;&gt;&lt;/div&gt;&lt;/div&gt;" style="rhombus;whiteSpace=wrap;html=1;labelBackgroundColor=none;flipH=1;flipV=1;shadow=0;labelBorderColor=none;fillColor=#333333;fontSize=12;" parent="1" vertex="1">
                    <mxGeometry x="-469.995" y="-1962" width="202.75" height="163" as="geometry"/>
                </mxCell>
                <mxCell id="413" style="edgeStyle=none;html=1;labelBackgroundColor=none;fontSize=12;" parent="1" source="414" target="412" edge="1">
                    <mxGeometry relative="1" as="geometry"/>
                </mxCell>
                <mxCell id="414" value="&lt;div style=&quot;color: rgb(204, 204, 204); font-family: Menlo, Monaco, &amp;quot;Courier New&amp;quot;, monospace; line-height: 18px; font-size: 12px;&quot;&gt;&lt;span style=&quot;color: rgb(220, 220, 170); font-size: 12px;&quot;&gt;_iswithinBounds&lt;/span&gt;()&lt;/div&gt;" style="shape=process;whiteSpace=wrap;html=1;backgroundOutline=1;labelBackgroundColor=none;flipH=1;flipV=1;shadow=0;labelBorderColor=none;fillColor=#333333;fontSize=12;" parent="1" vertex="1">
                    <mxGeometry x="-453.12" y="-2039" width="169" height="58" as="geometry"/>
                </mxCell>
                <mxCell id="417" style="edgeStyle=none;html=1;entryX=1;entryY=0.5;entryDx=0;entryDy=0;labelBackgroundColor=none;fontSize=12;" parent="1" source="416" target="406" edge="1">
                    <mxGeometry relative="1" as="geometry">
                        <Array as="points">
                            <mxPoint x="-126.99" y="-1731"/>
                        </Array>
                    </mxGeometry>
                </mxCell>
                <mxCell id="416" value="&lt;div style=&quot;color: rgb(204, 204, 204); font-family: Menlo, Monaco, &amp;quot;Courier New&amp;quot;, monospace; line-height: 18px; font-size: 12px;&quot;&gt;&lt;div style=&quot;line-height: 18px; font-size: 12px;&quot;&gt;&lt;span style=&quot;color: rgb(156, 220, 254); font-size: 12px;&quot;&gt;self-&lt;/span&gt;&amp;gt;&lt;span style=&quot;color: rgb(220, 220, 170); font-size: 12px;&quot;&gt;newline&lt;/span&gt;(&lt;span style=&quot;color: rgb(156, 220, 254); font-size: 12px;&quot;&gt;self&lt;/span&gt;)&lt;/div&gt;&lt;/div&gt;" style="shape=process;whiteSpace=wrap;html=1;backgroundOutline=1;labelBackgroundColor=none;flipH=1;flipV=1;shadow=0;labelBorderColor=none;fillColor=#333333;fontSize=12;" parent="1" vertex="1">
                    <mxGeometry x="-201.62" y="-1909.5" width="150" height="58" as="geometry"/>
                </mxCell>
                <mxCell id="426" style="edgeStyle=none;html=1;entryX=0.5;entryY=1;entryDx=0;entryDy=0;entryPerimeter=0;labelBackgroundColor=none;fontSize=12;" parent="1" source="421" target="425" edge="1">
                    <mxGeometry relative="1" as="geometry"/>
                </mxCell>
                <mxCell id="421" value="&lt;div style=&quot;font-family: Menlo, Monaco, &amp;quot;Courier New&amp;quot;, monospace; font-weight: normal; font-size: 12px; line-height: 18px;&quot;&gt;&lt;div style=&quot;line-height: 18px; font-size: 12px;&quot;&gt;&lt;div style=&quot;line-height: 18px; font-size: 12px;&quot;&gt;&lt;div style=&quot;line-height: 18px; font-size: 12px;&quot;&gt;&lt;div style=&quot;color: rgb(204, 204, 204); line-height: 18px; font-size: 12px;&quot;&gt;&lt;div style=&quot;line-height: 18px; font-size: 12px;&quot;&gt;&lt;span style=&quot;color: rgb(156, 220, 254); font-size: 12px;&quot;&gt;delta&lt;/span&gt; &lt;span style=&quot;color: rgb(212, 212, 212); font-size: 12px;&quot;&gt;=&lt;/span&gt; {&lt;span style=&quot;color: rgb(156, 220, 254); font-size: 12px;&quot;&gt;self&lt;/span&gt;-&amp;gt;&lt;span style=&quot;color: rgb(156, 220, 254); font-size: 12px;&quot;&gt;characterSpace&lt;/span&gt;, &lt;span style=&quot;color: rgb(181, 206, 168); font-size: 12px;&quot;&gt;0.0&lt;/span&gt;}&lt;/div&gt;&lt;/div&gt;&lt;/div&gt;&lt;/div&gt;&lt;/div&gt;&lt;/div&gt;" style="rounded=1;whiteSpace=wrap;html=1;labelBackgroundColor=none;flipH=1;flipV=1;shadow=0;labelBorderColor=none;fillColor=#333333;fontSize=12;" parent="1" vertex="1">
                    <mxGeometry x="-870" y="-1239" width="180" height="60" as="geometry"/>
                </mxCell>
                <mxCell id="425" value="&lt;div style=&quot;color: rgb(204, 204, 204); font-family: Menlo, Monaco, &amp;quot;Courier New&amp;quot;, monospace; line-height: 18px; font-size: 12px;&quot;&gt;&lt;div style=&quot;line-height: 18px; font-size: 12px;&quot;&gt;&lt;div style=&quot;line-height: 18px; font-size: 12px;&quot;&gt;&lt;div style=&quot;line-height: 18px; font-size: 12px;&quot;&gt;&lt;div style=&quot;line-height: 18px; font-size: 12px;&quot;&gt;&lt;div style=&quot;line-height: 18px; font-size: 12px;&quot;&gt;&lt;span style=&quot;color: rgb(156, 220, 254); font-size: 12px;&quot;&gt;self&lt;/span&gt;&lt;span style=&quot;font-size: 12px;&quot;&gt;-&amp;gt;&lt;/span&gt;&lt;span style=&quot;color: rgb(220, 220, 170); font-size: 12px;&quot;&gt;move&lt;/span&gt;&lt;span style=&quot;font-size: 12px;&quot;&gt;(&lt;/span&gt;&lt;span style=&quot;color: rgb(156, 220, 254); font-size: 12px;&quot;&gt;self&lt;/span&gt;&lt;span style=&quot;font-size: 12px;&quot;&gt;,&amp;nbsp;&lt;/span&gt;&lt;span style=&quot;color: rgb(156, 220, 254); font-size: 12px;&quot;&gt;delta&lt;/span&gt;&lt;span style=&quot;font-size: 12px;&quot;&gt;)&lt;/span&gt;&lt;br style=&quot;font-size: 12px;&quot;&gt;&lt;/div&gt;&lt;/div&gt;&lt;/div&gt;&lt;/div&gt;&lt;/div&gt;&lt;/div&gt;" style="strokeWidth=2;html=1;shape=mxgraph.flowchart.terminator;whiteSpace=wrap;labelBackgroundColor=none;flipH=1;flipV=1;shadow=0;labelBorderColor=none;fillColor=#333333;fontSize=12;" parent="1" vertex="1">
                    <mxGeometry x="-875" y="-1139" width="190" height="50" as="geometry"/>
                </mxCell>
                <mxCell id="428" style="edgeStyle=none;html=1;entryX=0.5;entryY=1;entryDx=0;entryDy=0;entryPerimeter=0;labelBackgroundColor=none;fontSize=12;" parent="1" source="429" target="430" edge="1">
                    <mxGeometry relative="1" as="geometry"/>
                </mxCell>
                <mxCell id="429" value="&lt;div style=&quot;font-family: Menlo, Monaco, &amp;quot;Courier New&amp;quot;, monospace; font-weight: normal; font-size: 12px; line-height: 18px;&quot;&gt;&lt;div style=&quot;line-height: 18px; font-size: 12px;&quot;&gt;&lt;div style=&quot;line-height: 18px; font-size: 12px;&quot;&gt;&lt;div style=&quot;line-height: 18px; font-size: 12px;&quot;&gt;&lt;div style=&quot;color: rgb(204, 204, 204); line-height: 18px; font-size: 12px;&quot;&gt;&lt;div style=&quot;line-height: 18px; font-size: 12px;&quot;&gt;&lt;div style=&quot;line-height: 18px; font-size: 12px;&quot;&gt;&lt;span style=&quot;color: rgb(156, 220, 254); font-size: 12px;&quot;&gt;pos&lt;/span&gt; &lt;span style=&quot;color: rgb(212, 212, 212); font-size: 12px;&quot;&gt;=&lt;/span&gt; {&lt;span style=&quot;color: rgb(156, 220, 254); font-size: 12px;&quot;&gt;self&lt;/span&gt;-&amp;gt;&lt;span style=&quot;color: rgb(156, 220, 254); font-size: 12px;&quot;&gt;minPosition&lt;/span&gt;.&lt;span style=&quot;color: rgb(156, 220, 254); font-size: 12px;&quot;&gt;x&lt;/span&gt;, &lt;span style=&quot;color: rgb(156, 220, 254); font-size: 12px;&quot;&gt;self&lt;/span&gt;-&amp;gt;&lt;span style=&quot;color: rgb(156, 220, 254); font-size: 12px;&quot;&gt;posisiton&lt;/span&gt;.&lt;span style=&quot;color: rgb(156, 220, 254); font-size: 12px;&quot;&gt;y&lt;/span&gt; &lt;span style=&quot;color: rgb(212, 212, 212); font-size: 12px;&quot;&gt;-&lt;/span&gt; &lt;span style=&quot;color: rgb(156, 220, 254); font-size: 12px;&quot;&gt;self&lt;/span&gt;-&amp;gt;&lt;span style=&quot;color: rgb(156, 220, 254); font-size: 12px;&quot;&gt;lineSpace&lt;/span&gt;}&lt;/div&gt;&lt;/div&gt;&lt;/div&gt;&lt;/div&gt;&lt;/div&gt;&lt;/div&gt;&lt;/div&gt;" style="rounded=1;whiteSpace=wrap;html=1;labelBackgroundColor=none;flipH=1;flipV=1;shadow=0;labelBorderColor=none;fillColor=#333333;fontSize=12;" parent="1" vertex="1">
                    <mxGeometry x="-620" y="-1239" width="210" height="60" as="geometry"/>
                </mxCell>
                <mxCell id="430" value="&lt;div style=&quot;color: rgb(204, 204, 204); font-family: Menlo, Monaco, &amp;quot;Courier New&amp;quot;, monospace; line-height: 18px; font-size: 12px;&quot;&gt;&lt;div style=&quot;line-height: 18px; font-size: 12px;&quot;&gt;&lt;div style=&quot;line-height: 18px; font-size: 12px;&quot;&gt;&lt;div style=&quot;line-height: 18px; font-size: 12px;&quot;&gt;&lt;div style=&quot;line-height: 18px; font-size: 12px;&quot;&gt;&lt;div style=&quot;line-height: 18px; font-size: 12px;&quot;&gt;&lt;span style=&quot;color: rgb(156, 220, 254); font-size: 12px;&quot;&gt;self&lt;/span&gt;&lt;span style=&quot;font-size: 12px;&quot;&gt;-&amp;gt;&lt;/span&gt;&lt;span style=&quot;color: rgb(220, 220, 170); font-size: 12px;&quot;&gt;set&lt;/span&gt;&lt;span style=&quot;font-size: 12px;&quot;&gt;(&lt;/span&gt;&lt;span style=&quot;color: rgb(156, 220, 254); font-size: 12px;&quot;&gt;self&lt;/span&gt;&lt;span style=&quot;font-size: 12px;&quot;&gt;,&amp;nbsp;&lt;/span&gt;&lt;span style=&quot;color: rgb(156, 220, 254); font-size: 12px;&quot;&gt;pos&lt;/span&gt;&lt;span style=&quot;font-size: 12px;&quot;&gt;)&lt;/span&gt;&lt;br style=&quot;font-size: 12px;&quot;&gt;&lt;/div&gt;&lt;/div&gt;&lt;/div&gt;&lt;/div&gt;&lt;/div&gt;&lt;/div&gt;" style="strokeWidth=2;html=1;shape=mxgraph.flowchart.terminator;whiteSpace=wrap;labelBackgroundColor=none;flipH=1;flipV=1;shadow=0;labelBorderColor=none;fillColor=#333333;fontSize=12;" parent="1" vertex="1">
                    <mxGeometry x="-610" y="-1139" width="190" height="50" as="geometry"/>
                </mxCell>
                <mxCell id="433" style="edgeStyle=none;html=1;entryX=0.5;entryY=1;entryDx=0;entryDy=0;entryPerimeter=0;labelBackgroundColor=none;fontSize=12;" parent="1" source="434" target="435" edge="1">
                    <mxGeometry relative="1" as="geometry"/>
                </mxCell>
                <mxCell id="434" value="&lt;div style=&quot;font-family: Menlo, Monaco, &amp;quot;Courier New&amp;quot;, monospace; font-weight: normal; font-size: 12px; line-height: 18px;&quot;&gt;&lt;div style=&quot;line-height: 18px; font-size: 12px;&quot;&gt;&lt;div style=&quot;line-height: 18px; font-size: 12px;&quot;&gt;&lt;div style=&quot;line-height: 18px; font-size: 12px;&quot;&gt;&lt;div style=&quot;color: rgb(204, 204, 204); line-height: 18px; font-size: 12px;&quot;&gt;&lt;div style=&quot;line-height: 18px; font-size: 12px;&quot;&gt;&lt;div style=&quot;line-height: 18px; font-size: 12px;&quot;&gt;&lt;div style=&quot;line-height: 18px; font-size: 12px;&quot;&gt;&lt;span style=&quot;color: rgb(156, 220, 254); font-size: 12px;&quot;&gt;pos&lt;/span&gt; &lt;span style=&quot;color: rgb(212, 212, 212); font-size: 12px;&quot;&gt;=&lt;/span&gt; {&lt;span style=&quot;color: rgb(156, 220, 254); font-size: 12px;&quot;&gt;self&lt;/span&gt;-&amp;gt;&lt;span style=&quot;color: rgb(156, 220, 254); font-size: 12px;&quot;&gt;minPosition&lt;/span&gt;.&lt;span style=&quot;color: rgb(156, 220, 254); font-size: 12px;&quot;&gt;x&lt;/span&gt;, &lt;span style=&quot;color: rgb(156, 220, 254); font-size: 12px;&quot;&gt;self&lt;/span&gt;-&amp;gt;&lt;span style=&quot;color: rgb(156, 220, 254); font-size: 12px;&quot;&gt;posisiton&lt;/span&gt;.&lt;span style=&quot;color: rgb(156, 220, 254); font-size: 12px;&quot;&gt;y&lt;/span&gt;}&lt;/div&gt;&lt;/div&gt;&lt;/div&gt;&lt;/div&gt;&lt;/div&gt;&lt;/div&gt;&lt;/div&gt;&lt;/div&gt;" style="rounded=1;whiteSpace=wrap;html=1;labelBackgroundColor=none;flipH=1;flipV=1;shadow=0;labelBorderColor=none;fillColor=#333333;fontSize=12;" parent="1" vertex="1">
                    <mxGeometry x="-358.62" y="-1239" width="210" height="60" as="geometry"/>
                </mxCell>
                <mxCell id="435" value="&lt;div style=&quot;color: rgb(204, 204, 204); font-family: Menlo, Monaco, &amp;quot;Courier New&amp;quot;, monospace; line-height: 18px; font-size: 12px;&quot;&gt;&lt;div style=&quot;line-height: 18px; font-size: 12px;&quot;&gt;&lt;div style=&quot;line-height: 18px; font-size: 12px;&quot;&gt;&lt;div style=&quot;line-height: 18px; font-size: 12px;&quot;&gt;&lt;div style=&quot;line-height: 18px; font-size: 12px;&quot;&gt;&lt;div style=&quot;line-height: 18px; font-size: 12px;&quot;&gt;&lt;span style=&quot;color: rgb(156, 220, 254); font-size: 12px;&quot;&gt;self&lt;/span&gt;&lt;span style=&quot;font-size: 12px;&quot;&gt;-&amp;gt;&lt;/span&gt;&lt;span style=&quot;color: rgb(220, 220, 170); font-size: 12px;&quot;&gt;set&lt;/span&gt;&lt;span style=&quot;font-size: 12px;&quot;&gt;(&lt;/span&gt;&lt;span style=&quot;color: rgb(156, 220, 254); font-size: 12px;&quot;&gt;self&lt;/span&gt;&lt;span style=&quot;font-size: 12px;&quot;&gt;,&amp;nbsp;&lt;/span&gt;&lt;span style=&quot;color: rgb(156, 220, 254); font-size: 12px;&quot;&gt;pos&lt;/span&gt;&lt;span style=&quot;font-size: 12px;&quot;&gt;)&lt;/span&gt;&lt;br style=&quot;font-size: 12px;&quot;&gt;&lt;/div&gt;&lt;/div&gt;&lt;/div&gt;&lt;/div&gt;&lt;/div&gt;&lt;/div&gt;" style="strokeWidth=2;html=1;shape=mxgraph.flowchart.terminator;whiteSpace=wrap;labelBackgroundColor=none;flipH=1;flipV=1;shadow=0;labelBorderColor=none;fillColor=#333333;fontSize=12;" parent="1" vertex="1">
                    <mxGeometry x="-348.62" y="-1139" width="190" height="50" as="geometry"/>
                </mxCell>
                <mxCell id="437" value="&lt;span style=&quot;font-size: 30px;&quot;&gt;Cursor.c&lt;/span&gt;" style="text;html=1;strokeColor=none;fillColor=#333333;align=center;verticalAlign=middle;whiteSpace=wrap;rounded=0;strokeWidth=4;labelBackgroundColor=none;" parent="1" vertex="1">
                    <mxGeometry x="-857.0000000000001" y="-2310" width="60" height="30" as="geometry"/>
                </mxCell>
            </root>
        </mxGraphModel>
    </diagram>
</mxfile>